<?xml version="1.0" encoding="UTF-8"?>
<svg xmlns="http://www.w3.org/2000/svg" width="360" height="296" viewBox="0 0 360 296" role="img" aria-label="Git activity preview">
<rect width="360" height="296" fill="#ffffff" stroke="#e5e7eb"/>
<text x="12" y="20" font-family="sans-serif" font-size="12" fill="#444">Git activity preview</text>
<rect x="12" y="30" width="12" height="12" fill="#2da44e" rx="2"/>
<text x="30" y="40" font-family="sans-serif" font-size="11" fill="#444">2026-01-05 github=1 private=0 total=1</text>
<rect x="12" y="50" width="12" height="12" fill="#2da44e" rx="2"/>
<text x="30" y="60" font-family="sans-serif" font-size="11" fill="#444">2026-01-31 github=2 private=0 total=2</text>
<rect x="12" y="70" width="12" height="12" fill="#2da44e" rx="2"/>
<text x="30" y="80" font-family="sans-serif" font-size="11" fill="#444">2026-02-04 github=6 private=0 total=6</text>
<rect x="12" y="90" width="12" height="12" fill="#2da44e" rx="2"/>
<text x="30" y="100" font-family="sans-serif" font-size="11" fill="#444">2026-02-05 github=9 private=0 total=9</text>
<rect x="12" y="110" width="12" height="12" fill="#2da44e" rx="2"/>
<text x="30" y="120" font-family="sans-serif" font-size="11" fill="#444">2026-02-06 github=4 private=0 total=4</text>
<rect x="12" y="130" width="12" height="12" fill="#2da44e" rx="2"/>
<text x="30" y="140" font-family="sans-serif" font-size="11" fill="#444">2026-02-08 github=2 private=0 total=2</text>
<rect x="12" y="150" width="12" height="12" fill="#218bff" rx="2"/>
<text x="30" y="160" font-family="sans-serif" font-size="11" fill="#444">2026-03-21 github=0 private=3 total=3</text>
<rect x="12" y="170" width="12" height="12" fill="#218bff" rx="2"/>
<text x="30" y="180" font-family="sans-serif" font-size="11" fill="#444">2026-03-22 github=0 private=2 total=2</text>
<rect x="12" y="190" width="12" height="12" fill="#218bff" rx="2"/>
<text x="30" y="200" font-family="sans-serif" font-size="11" fill="#444">2026-03-25 github=0 private=23 total=23</text>
<rect x="12" y="210" width="12" height="12" fill="#218bff" rx="2"/>
<text x="30" y="220" font-family="sans-serif" font-size="11" fill="#444">2026-03-26 github=0 private=9 total=9</text>
<rect x="12" y="230" width="12" height="12" fill="#218bff" rx="2"/>
<text x="30" y="240" font-family="sans-serif" font-size="11" fill="#444">2026-04-01 github=0 private=7 total=7</text>
<rect x="12" y="250" width="12" height="12" fill="#2da44e" rx="2"/>
<text x="30" y="260" font-family="sans-serif" font-size="11" fill="#444">2026-04-02 github=5 private=0 total=5</text>
<text x="12" y="284" font-family="sans-serif" font-size="10" fill="#888">Counts only. No repository metadata.</text>
</svg>
